<?xml version="1.0" encoding="utf-8"?>
<!-- Generator: Adobe Illustrator 23.1.0, SVG Export Plug-In . SVG Version: 6.00 Build 0)  -->
<svg version="1.1" xmlns="http://www.w3.org/2000/svg" xmlns:xlink="http://www.w3.org/1999/xlink" x="0px" y="0px"
	 viewBox="0 0 595.3 595.3" enable-background="new 0 0 595.3 595.3" xml:space="preserve">
<g id="Capa_1">
</g>
<g id="Capa_2">
	<g>
		
			<rect x="201.3" y="445.4" transform="matrix(6.123234e-17 -1 1 6.123234e-17 -176.275 761.8622)" fill="#CFC761" stroke="#CFC761" stroke-width="2.1896" stroke-linecap="round" stroke-linejoin="round" stroke-miterlimit="10" width="182.9" height="47.4"/>
		<path fill="#AFA75E" stroke="#AFA75E" stroke-width="4.3185" stroke-linejoin="round" stroke-miterlimit="10" d="M130,74.7
			c0,0-81.9-41.2-81.6,39.5c0,0-0.8,71.3,45.5,129.7c0,0,36.1,51.6,98.6,71.1c0,0-17.3-26.9-26-47.3c0,0-56.9-32.4-77.3-99.5
			c0,0-36.1-91.9,40.8-59.3V74.7z"/>
		
			<path fill="#F4E660" stroke="#F4E660" stroke-width="2.1896" stroke-linecap="round" stroke-linejoin="round" stroke-miterlimit="10" d="
			M292.8,382.7c41.2,0,75.3-37.4,75.3-37.4c42.4-43,65.5-116,65.5-116C463.9,149.9,452.9,27,452.9,27H292.8H132.7
			c0,0-11,122.9,19.2,202.3c0,0,23.1,73,65.5,116C217.5,345.3,251.6,382.7,292.8,382.7z"/>
		
			<path fill="#F4E660" stroke="#F4E660" stroke-width="2.1896" stroke-linecap="round" stroke-linejoin="round" stroke-miterlimit="10" d="
			M456.1,74.7c0,0,81.9-41.2,81.6,39.5c0,0,0.8,71.3-45.5,129.7c0,0-36.1,51.6-98.6,71.1c0,0,17.3-26.9,26-47.3
			c0,0,56.9-32.4,77.3-99.5c0,0,36.1-91.9-40.8-59.3V74.7z"/>
		
			<rect x="150.3" y="520.2" fill="#F4E660" stroke="#F4E660" stroke-width="2.1896" stroke-linecap="round" stroke-linejoin="round" stroke-miterlimit="10" width="285" height="41.7"/>
		
			<rect x="243.9" y="504.7" fill="#F4E660" stroke="#F4E660" stroke-width="2.1896" stroke-linecap="round" stroke-linejoin="round" stroke-miterlimit="10" width="97.7" height="15.5"/>
		
			<path fill="#CFC761" stroke="#CFC761" stroke-width="2.1896" stroke-linecap="round" stroke-linejoin="round" stroke-miterlimit="10" d="
			M132.7,27h44.8c0,0-13.2,118.1,18.4,199.8c0,0,18.5,90,93,155.8c0,0-64.4,0-113.9-94c0,0-33.8-45.1-44.2-147.8
			C130.8,140.8,126.8,53.2,132.7,27z"/>
		<g>
			<path fill="#AFA75E" d="M268.1,380.3c4.3,0.5,8.4,0.9,12.5,1.2c4.1,0.3,8.2,0.5,12.3,0.5l1.5,0l1.5,0c1,0,2,0,3.1-0.1
				c2-0.1,4.1-0.2,6.1-0.4c4.1-0.2,8.2-0.9,12.5-1.2c-3.7,2.2-7.7,3.9-11.9,4.8c-2.1,0.6-4.2,0.8-6.4,1.2c-2.1,0.2-4.3,0.4-6.5,0.3
				c-4.3,0-8.6-0.5-12.8-1.5C275.8,384.1,271.7,382.7,268.1,380.3z"/>
		</g>
		
			<line fill="none" stroke="#AFA75E" stroke-width="4.3185" stroke-linejoin="round" stroke-miterlimit="10" x1="242.9" y1="516.9" x2="342.6" y2="516.9"/>
		
			<rect x="150.3" y="520.2" fill="#CFC761" stroke="#CFC761" stroke-width="2.1896" stroke-linecap="round" stroke-linejoin="round" stroke-miterlimit="10" width="16.4" height="41.7"/>
	</g>
</g>
</svg>
